<?xml version="1.0" encoding="UTF-8"?>
<svg id="Layer_1" data-name="Layer 1" xmlns="http://www.w3.org/2000/svg" xmlns:xlink="http://www.w3.org/1999/xlink" version="1.1" viewBox="0 0 150 150">
  <defs>
    <style>
      .cls-1 {
        fill: none;
      }

      .cls-1, .cls-2, .cls-3, .cls-4, .cls-5, .cls-6, .cls-7, .cls-8, .cls-9, .cls-10, .cls-11, .cls-12, .cls-13, .cls-14, .cls-15, .cls-16 {
        stroke-width: 0px;
      }

      .cls-2 {
        fill: url(#linear-gradient);
      }

      .cls-3 {
        fill: url(#radial-gradient);
      }

      .cls-4 {
        fill: #fafafa;
      }

      .cls-5 {
        fill: #db8120;
      }

      .cls-6 {
        fill: #fccc97;
      }

      .cls-7 {
        fill: #fc9f30;
      }

      .cls-8 {
        fill: #ddd;
      }

      .cls-9 {
        fill: url(#radial-gradient-2);
      }

      .cls-17 {
        opacity: .2;
      }

      .cls-18 {
        opacity: .2;
      }

      .cls-19 {
        opacity: .3;
      }

      .cls-20 {
        opacity: .7;
      }

      .cls-10 {
        fill: url(#linear-gradient-2);
      }

      .cls-11 {
        fill: url(#linear-gradient-3);
      }

      .cls-12 {
        fill: #f44336;
      }

      .cls-13 {
        fill: #00bbed;
      }

      .cls-14 {
        fill: #fff;
      }

      .cls-15 {
        fill: #f7f7f7;
      }

      .cls-16 {
        fill: #000;
        isolation: isolate;
        opacity: .2;
      }
    </style>
    <linearGradient id="linear-gradient" x1="-33.5" y1="-158.2" x2="-17.7" y2="-119.8" gradientTransform="translate(37.4 -74) rotate(-23.3) scale(1 -1)" gradientUnits="userSpaceOnUse">
      <stop offset="0" stop-color="#b998d6"/>
      <stop offset="0" stop-color="#c0a1da"/>
      <stop offset=".2" stop-color="#d1b4e3"/>
      <stop offset=".7" stop-color="#f1e8f6"/>
      <stop offset="1" stop-color="#fff"/>
    </linearGradient>
    <radialGradient id="radial-gradient" cx="-20" cy="-127.1" fx="-20" fy="-127.1" r="23.1" gradientTransform="translate(37.4 -74) rotate(-23.3) scale(1 -1)" gradientUnits="userSpaceOnUse">
      <stop offset="0" stop-color="#fff"/>
      <stop offset="0" stop-color="#d8d8d8"/>
      <stop offset=".2" stop-color="#a6a6a6"/>
      <stop offset=".3" stop-color="#797979"/>
      <stop offset=".4" stop-color="#545454"/>
      <stop offset=".5" stop-color="#353535"/>
      <stop offset=".6" stop-color="#1e1e1e"/>
      <stop offset=".7" stop-color="#0d0d0d"/>
      <stop offset=".8" stop-color="#030303"/>
      <stop offset="1" stop-color="#000"/>
    </radialGradient>
    <linearGradient id="linear-gradient-2" x1="-28.8" y1="-150.5" x2="-14.3" y2="-109.9" gradientTransform="translate(37.4 -74) rotate(-23.3) scale(1 -1)" gradientUnits="userSpaceOnUse">
      <stop offset="0" stop-color="#b998d6"/>
      <stop offset="0" stop-color="#c0a1da"/>
      <stop offset=".2" stop-color="#d1b4e3"/>
      <stop offset=".7" stop-color="#f1e8f6"/>
      <stop offset="1" stop-color="#fff"/>
    </linearGradient>
    <linearGradient id="linear-gradient-3" x1="-1.8" y1="-99.5" x2="-22.6" y2="-129.6" gradientTransform="translate(37.4 -74) rotate(-23.3) scale(1 -1)" gradientUnits="userSpaceOnUse">
      <stop offset="0" stop-color="#b998d6"/>
      <stop offset="0" stop-color="#c0a1da"/>
      <stop offset=".2" stop-color="#d1b4e3"/>
      <stop offset=".7" stop-color="#f1e8f6"/>
      <stop offset="1" stop-color="#fff"/>
    </linearGradient>
    <radialGradient id="radial-gradient-2" cx="-25.9" cy="-712.3" fx="-25.9" fy="-712.3" r="9.6" gradientTransform="translate(375.2 683.8) rotate(-23.3)" gradientUnits="userSpaceOnUse">
      <stop offset="0" stop-color="#fff"/>
      <stop offset="0" stop-color="#d8d8d8"/>
      <stop offset=".2" stop-color="#a6a6a6"/>
      <stop offset=".3" stop-color="#797979"/>
      <stop offset=".4" stop-color="#545454"/>
      <stop offset=".5" stop-color="#353535"/>
      <stop offset=".6" stop-color="#1e1e1e"/>
      <stop offset=".7" stop-color="#0d0d0d"/>
      <stop offset=".8" stop-color="#030303"/>
      <stop offset="1" stop-color="#000"/>
    </radialGradient>
  </defs>
  <rect class="cls-15" y="0" width="150" height="149.7"/>
  <rect class="cls-13" y="0" width="150" height="96.6"/>
  <path class="cls-8" d="M97,116.2h-44.1c-1.2,0-2.2-1-2.2-2.2h0c0-1.2,1-2.2,2.2-2.2h44.1c1.2,0,2.2,1,2.2,2.2h0c0,1.3-1,2.2-2.2,2.2Z"/>
  <path class="cls-8" d="M111.4,126.4H38.6c-1.2,0-2.2-1-2.2-2.2h0c0-1.2,1-2.2,2.2-2.2h72.8c1.2,0,2.2,1,2.2,2.2h0c0,1.2-1,2.2-2.2,2.2Z"/>
  <path class="cls-8" d="M111.4,135.3H38.6c-1.2,0-2.2-1-2.2-2.2h0c0-1.2,1-2.2,2.2-2.2h72.8c1.2,0,2.2,1,2.2,2.2h0c0,1.3-1,2.2-2.2,2.2Z"/>
  <rect class="cls-1" y="0" width="150" height="150"/>
  <g class="cls-20">
    <g>
      <g class="cls-17">
        <path class="cls-14" d="M111.3,56.4c0-1.1,0-2.3,0-3.4-.6-5.3-3.5-10.3-7.7-13.8-1.5-1.3-3.2-2.4-4.2-4.1-1.6-2.8-1.5-6-3.5-8.8s-5-4.9-8.4-6c-10-3.3-24,2.1-22.7,13.6v.2c.2,2.4-1.8,4.4-4.3,4.5-9.2.2-17.1,7-18.8,15.6-1.1,5.5.7,11.6,4.9,15.5,3.2,2.9,7.4,4.5,11.6,5.6,8.5,2.2,17.4,2.7,26.2,1.8,8.2-.8,16.9-3,22.2-9.1,3-3.3,4.6-7.4,4.8-11.6Z"/>
      </g>
      <g class="cls-18">
        <path class="cls-14" d="M103.8,56.9c0-.9,0-1.8,0-2.7-.5-4.2-2.7-8.1-6-10.8-1.2-1-2.5-1.9-3.3-3.2-1.3-2.2-1.2-4.7-2.8-6.9-1.6-2.2-3.9-3.9-6.5-4.7-7.8-2.6-18.8,1.6-17.8,10.6h0c0,2-1.4,3.5-3.4,3.6-7.2.2-13.4,5.5-14.8,12.2-.9,4.3.5,9.1,3.9,12.1,2.5,2.3,5.8,3.5,9.1,4.4,6.7,1.7,13.7,2.1,20.5,1.4,6.4-.6,13.2-2.4,17.4-7.1,2.3-2.4,3.6-5.6,3.8-8.9Z"/>
      </g>
      <g class="cls-19">
        <ellipse class="cls-14" cx="107.1" cy="27.8" rx="2.3" ry="2.2"/>
      </g>
      <g class="cls-19">
        <ellipse class="cls-14" cx="57.6" cy="25.3" rx="2.6" ry="2.5"/>
      </g>
      <g class="cls-19">
        <ellipse class="cls-14" cx="42" cy="73.3" rx="3.4" ry="3.2"/>
      </g>
    </g>
  </g>
  <g>
    <path class="cls-2" d="M46.3,58.4h0l39.3,10.6h0c.3-.2.5-.4.6-.8l4.9-28.4c0-.6-.3-1.2-1-1.3l-37.4-5.9c-.5,0-1,.3-1.1.8l-5.4,24c0,.4,0,.7.1,1Z"/>
    <path class="cls-3" d="M66.4,45.7c1-.6,2.3-.4,3,.6l16.8,21.4,4.7-26.7c0-.6-.3-1.2-1-1.3l-37.5-6c-.5,0-1,.3-1.1.8l-5.1,22.7,20.2-11.5Z"/>
    <path class="cls-10" d="M66.6,44.7c1-.6,2.3-.4,3,.6l16.6,22.5,4.9-27.9c0-.6-.3-1.2-1-1.3l-37.4-5.9c-.5,0-1,.3-1.1.8l-5.3,23.7,20.3-12.5Z"/>
    <path class="cls-16" d="M47,56.5l20.2-12.6c1-.6,2.3-.4,3,.6l15.6,22.1.4,1.2-16.6-22.5c-.7-1-2-1.2-3-.6l-20.3,12.5.7-.7Z"/>
    <path class="cls-16" d="M90.7,38.8h0l-22.5,14.2c-1,.6-2.3.3-3-.7l-12.9-19.5h0l38.4,6Z"/>
    <path class="cls-11" d="M90.7,38.8h0l-22.4,13.3c-1,.6-2.3.3-3-.7l-13-18.7h0l38.4,6.1Z"/>
    <path class="cls-9" d="M65.7,51c.7,1,1.9,1.3,3,.7l21.7-12.9h.4c0,0-22.5,13.3-22.5,13.3-1,.6-2.3.3-3-.7l-13-18.7h.7c0,0,12.7,18.3,12.7,18.3Z"/>
  </g>
  <path class="cls-14" d="M98.7,33.3c-4.4-4.4-11.6-4.4-16,0-4.4,4.4-4.4,11.6,0,16s11.6,4.4,16,0c4.4-4.4,4.5-11.6,0-16Z"/>
  <g>
    <rect class="cls-7" x="84.2" y="35" width="13.1" height="11.8"/>
    <rect class="cls-6" x="84.2" y="35" width="6.5" height="11.8"/>
    <polygon class="cls-5" points="92.1 40.9 90.7 39.7 89.3 40.9 89.3 35 92.1 35 92.1 40.9"/>
    <circle class="cls-12" cx="95.3" cy="45.5" r="4.6"/>
    <g>
      <rect class="cls-4" x="94.8" y="42.3" width="1" height="6.4" rx=".5" ry=".5" transform="translate(-4.3 80.7) rotate(-45)"/>
      <rect class="cls-4" x="94.8" y="42.3" width="1" height="6.4" rx=".5" ry=".5" transform="translate(60.1 -54.1) rotate(45)"/>
    </g>
  </g>
</svg>